<svg width="20" height="20" viewBox="0 0 20 20" fill="none" xmlns="http://www.w3.org/2000/svg">
<path d="M10 18.75C5.175 18.75 1.25 14.825 1.25 10C1.25 5.175 5.175 1.25 10 1.25C14.825 1.25 18.75 5.175 18.75 10C18.75 14.825 14.825 18.75 10 18.75ZM10 2.5C5.8625 2.5 2.5 5.8625 2.5 10C2.5 14.1375 5.8625 17.5 10 17.5C14.1375 17.5 17.5 14.1375 17.5 10C17.5 5.8625 14.1375 2.5 10 2.5Z" fill="#FFF2AF"/>
<path d="M10 14.375C9.65 14.375 9.375 14.1 9.375 13.75V6.25C9.375 5.9 9.65 5.625 10 5.625C10.35 5.625 10.625 5.9 10.625 6.25V13.75C10.625 14.1 10.35 14.375 10 14.375Z" fill="#FFF2AF"/>
<path d="M13.75 10.625H6.25C5.9 10.625 5.625 10.35 5.625 10C5.625 9.65 5.9 9.375 6.25 9.375H13.75C14.1 9.375 14.375 9.65 14.375 10C14.375 10.35 14.1 10.625 13.75 10.625Z" fill="#FFF2AF"/>
</svg>
