<svg width="20" height="20" viewBox="0 0 20 20" fill="none" xmlns="http://www.w3.org/2000/svg">
<path d="M14.1667 5.00001V2.50001C14.1667 2.27899 14.0789 2.06703 13.9226 1.91075C13.7663 1.75447 13.5543 1.66667 13.3333 1.66667H3.33333C3.11232 1.66667 2.90036 1.75447 2.74408 1.91075C2.5878 2.06703 2.5 2.27899 2.5 2.50001V14.1667C2.5 14.3877 2.5878 14.5996 2.74408 14.7559C2.90036 14.9122 3.11232 15 3.33333 15H5.83333V17.5C5.83333 17.96 6.20833 18.3333 6.6725 18.3333H16.6608C16.7708 18.3341 16.8797 18.3131 16.9815 18.2716C17.0833 18.2301 17.1759 18.1688 17.2539 18.0913C17.3319 18.0139 17.3938 17.9217 17.436 17.8203C17.4783 17.7188 17.5 17.6099 17.5 17.5L17.4975 5.83334C17.4975 5.37334 17.1225 5.00001 16.6592 5.00001H14.1667ZM12.5 5.00001H5.83333V13.3333H4.16667V3.33334H12.5V5.00001Z" fill="#493D9E"/>
</svg>
