<svg width="21" height="20" viewBox="0 0 21 20" fill="none" xmlns="http://www.w3.org/2000/svg">
<path d="M10.3027 8.65408C11.9955 8.65408 13.3678 7.29911 13.3678 5.62767C13.3678 3.95623 11.9955 2.60126 10.3027 2.60126C8.60994 2.60126 7.23767 3.95623 7.23767 5.62767C7.23767 7.29911 8.60994 8.65408 10.3027 8.65408Z" fill="#493D9E"/>
<path d="M5.6536 5.93031H5.96268V5.65343C5.96456 4.84827 6.19171 4.05971 6.61844 3.37694C7.04517 2.69417 7.65446 2.14444 8.37737 1.78993C8.16336 1.29705 7.81984 0.871339 7.38331 0.558011C6.94679 0.244682 6.43354 0.0554368 5.8981 0.0103741C5.36265 -0.0346887 4.825 0.066114 4.34224 0.302076C3.85949 0.538038 3.44965 0.900348 3.15627 1.35052C2.86289 1.8007 2.69692 2.32193 2.67598 2.85886C2.65504 3.39579 2.77992 3.92837 3.03735 4.40003C3.29478 4.87168 3.67515 5.26481 4.13807 5.53765C4.60098 5.81049 5.12915 5.95286 5.66648 5.94963L5.6536 5.93031ZM14.6556 5.62767V5.90456H14.9646C15.4948 5.89924 16.0137 5.75109 16.4668 5.4757C16.9199 5.20032 17.2903 4.80789 17.5392 4.33971C17.788 3.87154 17.9061 3.34494 17.8808 2.81534C17.8556 2.28574 17.6881 1.77273 17.3959 1.33031C17.1037 0.88789 16.6977 0.532421 16.2205 0.301321C15.7433 0.0702205 15.2127 -0.0279646 14.6844 0.0171005C14.1561 0.0621655 13.6497 0.248814 13.2186 0.557399C12.7874 0.865985 12.4475 1.28509 12.2344 1.77061C12.9576 2.12373 13.5675 2.67207 13.9954 3.35367C14.4232 4.03526 14.6519 4.82293 14.6556 5.62767ZM13.0651 8.95672C14.3452 9.21055 15.5831 9.64412 16.7418 10.2446C16.9051 10.3341 17.053 10.4494 17.1797 10.5858H20.6053V8.38364C20.606 8.29917 20.5835 8.21614 20.5404 8.14351C20.4973 8.07088 20.4351 8.01142 20.3607 7.97153C18.6917 7.09858 16.8352 6.6455 14.9518 6.6515H14.5268C14.3036 7.5586 13.7904 8.36802 13.0651 8.95672ZM2.91696 11.835C2.91578 11.5107 3.00336 11.1923 3.17021 10.9142C3.33706 10.6361 3.57682 10.409 3.86351 10.2574C5.02227 9.657 6.26012 9.22343 7.54028 8.9696C6.81849 8.38591 6.30558 7.58378 6.07859 6.6837H5.6536C3.77016 6.6777 1.91364 7.13078 0.244701 8.00373C0.170244 8.04361 0.108098 8.10308 0.0649742 8.17571C0.0218505 8.24834 -0.000611928 8.33137 1.26799e-05 8.41583V12.5305H2.91696V11.835ZM12.5306 15.5504H16.3684V16.4519H12.5306V15.5504Z" fill="#493D9E"/>
<path d="M19.839 12.054H15.4153V11.41C15.4153 11.2393 15.3475 11.0755 15.2267 10.9547C15.106 10.834 14.9422 10.7661 14.7714 10.7661C14.6006 10.7661 14.4368 10.834 14.3161 10.9547C14.1953 11.0755 14.1275 11.2393 14.1275 11.41V12.054H12.8783V10.2317C12.0312 10.053 11.1683 9.96028 10.3026 9.95479C8.27036 9.94711 6.26723 10.4379 4.46873 11.3843C4.38863 11.4258 4.32159 11.4887 4.275 11.566C4.22841 11.6433 4.20409 11.7319 4.20472 11.8221V15.4345H8.78297V19.356C8.78297 19.5267 8.85081 19.6905 8.97157 19.8113C9.09233 19.932 9.25611 19.9999 9.42689 19.9999H19.839C20.0098 19.9999 20.1736 19.932 20.2943 19.8113C20.4151 19.6905 20.4829 19.5267 20.4829 19.356V12.6979C20.4829 12.5271 20.4151 12.3633 20.2943 12.2426C20.1736 12.1218 20.0098 12.054 19.839 12.054ZM19.1951 18.7249H10.0708V13.3418H14.1275V13.9278C14.1275 14.0985 14.1953 14.2623 14.3161 14.3831C14.4368 14.5038 14.6006 14.5717 14.7714 14.5717C14.9422 14.5717 15.106 14.5038 15.2267 14.3831C15.3475 14.2623 15.4153 14.0985 15.4153 13.9278V13.3418H19.1951V18.7249Z" fill="#493D9E"/>
</svg>
