<svg width="19" height="20" viewBox="0 0 19 20" fill="none" xmlns="http://www.w3.org/2000/svg">
<path d="M10.2384 1.85704L16.2546 6.79738C16.593 7.0743 16.7951 7.50095 16.7951 7.95632V16.9847C16.7951 17.8196 16.1407 18.4616 15.3767 18.4616H12.6926V13.59C12.6926 12.8419 12.3955 12.1246 11.8666 11.5956C11.3376 11.0667 10.6203 10.7696 9.87224 10.7696H8.84663C8.09861 10.7696 7.38123 11.0667 6.8523 11.5956C6.32337 12.1246 6.02622 12.8419 6.02622 13.59V18.4616H3.34221C2.57813 18.4616 1.92379 17.8196 1.92379 16.9847V7.95734C1.92379 7.50095 2.12584 7.07532 2.46429 6.79841L8.48049 1.85602C8.72734 1.65065 9.03832 1.53821 9.35943 1.53821C9.68055 1.53821 9.99152 1.65167 10.2384 1.85704ZM15.3767 19.999C17.0279 19.999 18.3335 18.6298 18.3335 16.9837V7.95632C18.3347 7.5077 18.2364 7.06439 18.0458 6.65828C17.8551 6.25218 17.5768 5.89337 17.231 5.60768L11.2158 0.667342C10.6937 0.235975 10.0377 0 9.36046 0C8.68324 0 8.02719 0.235975 7.50514 0.667342L1.48791 5.60871C1.14202 5.8944 0.863742 6.2532 0.673104 6.65931C0.482466 7.06541 0.384204 7.50872 0.385387 7.95734V16.9847C0.385387 18.6308 1.69098 20 3.34221 20L15.3767 19.999Z" fill="#493D9E"/>
</svg>
