<svg width="208" height="60" viewBox="0 0 208 60" fill="none" xmlns="http://www.w3.org/2000/svg">
<g clip-path="url(#clip0_88_2)">
<path d="M59.986 29.9717C59.986 37.8366 56.9601 44.9976 52.0065 50.3457C51.9745 50.3804 51.9425 50.415 51.9105 50.447L40.1479 35.9357C40.8811 35.7944 41.5876 35.5678 42.2514 35.2692C42.2701 35.2638 42.2861 35.2559 42.3021 35.2479C47.5489 33.139 51.2547 28.0042 51.2547 22.0056C51.2547 18.5584 50.031 15.3991 47.9968 12.933C47.9914 12.925 47.9861 12.9197 47.9808 12.9143C47.005 11.6746 45.8053 10.5149 44.3869 9.80039C44.363 9.78973 44.3416 9.77373 44.3176 9.7684C42.1768 8.48069 39.6707 7.7422 36.9913 7.7422C35.6876 7.7422 34.4266 7.91816 33.2295 8.24342V8.24875C32.6776 8.40871 32.1524 8.62466 31.6619 8.89127V13.2743C31.7472 13.2183 31.8325 13.1649 31.9178 13.1116C31.9178 13.1116 31.9196 13.1107 31.9232 13.109C32.787 12.813 33.7174 12.6531 34.6825 12.6531C39.3961 12.6531 43.2139 16.4709 43.2139 21.1844C43.2139 23.8531 41.9875 26.2366 40.0706 27.7989C39.2761 28.4468 38.3643 28.9533 37.3699 29.2839C37.2606 29.2892 37.1513 29.2946 37.042 29.2946C36.914 29.2946 36.786 29.2892 36.6581 29.2839C36.6181 29.2866 36.5807 29.2866 36.5408 29.2866H31.03V-1.52588e-05C47.117 0.543859 59.986 13.7568 59.986 29.9717Z" fill="#493D9E"/>
<path d="M14.65 29.6411V19.2809H7.71822V50.0578C2.91933 44.7443 0 37.7006 0 29.9744C0 15.4258 10.3549 3.30055 24.0984 0.562515V29.6411H14.65Z" fill="#493D9E"/>
<path d="M43.7659 52.4572L31.1261 36.3249L31.0301 36.2023V48.1889H24.0984V36.7009H14.6526V55.7498C19.1396 58.4292 24.389 59.9648 29.993 59.9648C35.9303 59.9648 41.4677 58.2425 46.1253 55.2646C47.437 54.4248 48.6821 53.4836 49.8445 52.4572H43.7659ZM36.5249 52.156H18.1291V50.5563H36.5249V52.156Z" fill="#493D9E"/>
<path d="M93.3997 7.84084V31.782H72.194V7.84084H66.5339V52.4812H72.194V36.7248H93.3997V52.4812H99.1211V7.84084H93.3997Z" fill="#493D9E"/>
<path d="M121.367 19.4835C117.528 19.4835 114.08 22.1522 112.649 26.3779H112.39L112.196 20.2007H107.186C107.381 23.128 107.447 26.3139 107.447 30.0224V52.4812H113.105V34.8986C113.105 33.9228 113.235 33.0137 113.366 32.2325C114.144 27.9402 117.008 24.8822 121.042 24.8822C121.82 24.8822 122.407 24.9489 122.993 25.0795V19.6808C122.471 19.5501 122.017 19.4835 121.367 19.4835Z" fill="#493D9E"/>
<path d="M151.61 34.3147C151.61 28.5267 148.878 19.4835 138.603 19.4835C129.432 19.4835 123.838 26.9644 123.838 36.4609C123.838 45.9574 129.626 52.3319 139.317 52.3319C144.327 52.3319 147.774 51.2921 149.789 50.3804L148.814 46.2826C146.668 47.1944 144.196 47.9089 140.098 47.9089C134.374 47.9089 129.432 44.7203 129.301 36.9808H151.416C151.48 36.3969 151.61 35.4851 151.61 34.3147ZM146.081 32.8831H129.365C129.821 28.916 132.359 23.5812 138.147 23.5812C144.585 23.5812 146.148 29.2412 146.081 32.8831Z" fill="#493D9E"/>
<path d="M156.748 0.167938V52.2146H162.472V0.167938H156.748Z" fill="#493D9E"/>
<path d="M170.145 19.4008V52.2146H175.869V19.4008H170.145ZM173.008 7.77686C170.926 7.77686 169.43 9.3365 169.43 11.3547C169.43 13.3729 170.862 14.8659 172.878 14.8659C175.154 14.8659 176.586 13.3062 176.519 11.3547C176.519 9.3365 175.154 7.77686 173.008 7.77686Z" fill="#493D9E"/>
<path d="M198.01 36.7542L207.675 19.4008H201.497L197.075 26.9005C196.032 28.5907 194.992 30.217 193.953 32.1019H193.755C192.716 30.3477 191.74 28.7214 190.569 26.9644L186.08 19.4008H179.708L189.308 36.9488L179.185 52.2146H185.496L190.049 44.5924C191.22 42.7048 192.326 41.0145 193.366 39.127H193.497C194.603 41.0145 195.643 42.7715 196.877 44.5924L201.497 52.2146H208L198.01 36.7542Z" fill="#493D9E"/>
</g>
<defs>
<clipPath id="clip0_88_2">
<rect width="208" height="59.9648" fill="white"/>
</clipPath>
</defs>
</svg>
