<?xml version="1.0" encoding="UTF-8"?>
<svg id="Layer_2" data-name="Layer 2" xmlns="http://www.w3.org/2000/svg" viewBox="0 0 225 224.92">
  <defs>
    <style>
      .cls-1 {
        fill: #fff;
      }
    </style>
  </defs>
  <g id="Layer_2-2" data-name="Layer 2">
    <g id="Layer_1-2" data-name="Layer 1-2">
      <g>
        <path class="cls-1" d="M225,112.42c0,29.5-11.35,56.36-29.93,76.42-.12.13-.24.26-.36.38l-44.12-54.43c2.75-.53,5.4-1.38,7.89-2.5.07-.02.13-.05.19-.08,19.68-7.91,33.58-27.17,33.58-49.67,0-12.93-4.59-24.78-12.22-34.03-.02-.03-.04-.05-.06-.07-3.66-4.65-8.16-9-13.48-11.68-.09-.04-.17-.1-.26-.12-8.03-4.83-17.43-7.6-27.48-7.6-4.89,0-9.62.66-14.11,1.88v.02c-2.07.6-4.04,1.41-5.88,2.41v16.44c.32-.21.64-.41.96-.61.21-.13.22-.14.02,0,3.24-1.11,6.73-1.71,10.35-1.71,17.68,0,32,14.32,32,32,0,10.01-4.6,18.95-11.79,24.81-2.98,2.43-6.4,4.33-10.13,5.57-.41.02-.82.04-1.23.04-.48,0-.96-.02-1.44-.04-.15.01-.29.01-.44.01h-20.67V0c60.34,2.04,108.61,51.6,108.61,112.42h0Z"/>
        <path class="cls-1" d="M52.95,111.18v-38.86h-22v115.44C12.95,167.83,0,141.41,0,112.43,0,57.86,38.84,12.38,90.39,2.11v109.07h-37.44Z"/>
        <path class="cls-1" d="M164.16,196.76l-47.41-60.51-.36-.46v44.96h-26v-43.09h-37.43v71.45c16.83,10.05,38.52,15.81,59.54,15.81,22.27,0,43.04-6.46,60.51-17.63,4.92-3.15,9.59-6.68,13.95-10.53h-22.8,0ZM137,195.63h-69v-6h69v6Z"/>
      </g>
    </g>
  </g>
</svg>