<svg width="118" height="35" viewBox="0 0 118 35" fill="none" xmlns="http://www.w3.org/2000/svg">
<g clip-path="url(#clip0_88_44)">
<path d="M34.0307 17.0032C34.0307 21.465 32.3141 25.5275 29.5039 28.5615C29.4857 28.5812 29.4676 28.6008 29.4494 28.619L22.7764 20.3866C23.1923 20.3064 23.5931 20.1779 23.9698 20.0085C23.9803 20.0055 23.9894 20.0009 23.9985 19.9964C26.975 18.8 29.0774 15.887 29.0774 12.4839C29.0774 10.5283 28.3831 8.73603 27.2291 7.337C27.2261 7.33246 27.2231 7.32944 27.2201 7.32641C26.6665 6.62311 25.9859 5.96519 25.1812 5.55984C25.1676 5.55379 25.1555 5.54472 25.1419 5.5417C23.9274 4.81117 22.5057 4.39222 20.9856 4.39222C20.246 4.39222 19.5306 4.49204 18.8515 4.67656V4.67959C18.5385 4.77034 18.2405 4.89284 17.9622 5.04409V7.5306C18.0106 7.49883 18.059 7.46858 18.1074 7.43833C18.1074 7.43833 18.1084 7.43783 18.1104 7.43682C18.6005 7.26894 19.1283 7.17819 19.6758 7.17819C22.3499 7.17819 24.5158 9.34405 24.5158 12.0181C24.5158 13.5321 23.82 14.8842 22.7326 15.7705C22.2818 16.1381 21.7646 16.4254 21.2004 16.613C21.1384 16.616 21.0764 16.619 21.0144 16.619C20.9418 16.619 20.8692 16.616 20.7966 16.613C20.7739 16.6145 20.7527 16.6145 20.73 16.6145H17.6038V0C26.73 0.308544 34.0307 7.80435 34.0307 17.0032Z" fill="white"/>
<path d="M8.31103 16.8157V10.9382H4.37861V28.3982C1.65616 25.3838 0 21.3879 0 17.0047C0 8.75116 5.87444 1.87244 13.6712 0.319131V16.8157H8.31103Z" fill="white"/>
<path d="M24.8288 29.7594L17.6582 20.6074L17.6037 20.5378V27.3379H13.6713V20.8207H8.31262V31.6273C10.8581 33.1473 13.8362 34.0185 17.0154 34.0185C20.3837 34.0185 23.5251 33.0415 26.1673 31.352C26.9115 30.8756 27.6178 30.3417 28.2772 29.7594H24.8288ZM20.7209 29.5885H10.2849V28.681H20.7209V29.5885Z" fill="white"/>
<path d="M52.9865 4.44818V18.0302H40.9563V4.44818H37.7454V29.773H40.9563V20.8343H52.9865V29.773H56.2323V4.44818H52.9865Z" fill="white"/>
<path d="M68.8523 11.0531C66.6744 11.0531 64.7187 12.5671 63.9065 14.9644H63.7598L63.6494 11.46H60.8075C60.9179 13.1207 60.9557 14.9281 60.9557 17.0319V29.773H64.1652V19.7982C64.1652 19.2447 64.2393 18.7289 64.3134 18.2858C64.755 15.8507 66.3794 14.1159 68.6678 14.1159C69.1095 14.1159 69.4422 14.1537 69.7749 14.2278V11.1651C69.4785 11.091 69.2214 11.0531 68.8523 11.0531Z" fill="white"/>
<path d="M86.0097 19.467C86.0097 16.1834 84.4594 11.0531 78.6303 11.0531C73.4274 11.0531 70.2543 15.2971 70.2543 20.6846C70.2543 26.072 73.5378 29.6883 79.0357 29.6883C81.8776 29.6883 83.8332 29.0984 84.9767 28.5812L84.4231 26.2565C83.2056 26.7738 81.8035 27.1791 79.4788 27.1791C76.2316 27.1791 73.4274 25.3702 73.3533 20.9795H85.8993C85.9356 20.6483 86.0097 20.131 86.0097 19.467ZM82.8728 18.6548H73.3896C73.6483 16.4043 75.0881 13.3778 78.3717 13.3778C82.0243 13.3778 82.9106 16.5888 82.8728 18.6548Z" fill="white"/>
<path d="M88.9243 0.0952845V29.6218H92.1716V0.0952845H88.9243Z" fill="white"/>
<path d="M96.5245 11.0063V29.6218H99.7718V11.0063H96.5245ZM98.1489 4.41188C96.9676 4.41188 96.1191 5.29667 96.1191 6.44161C96.1191 7.58656 96.9313 8.43354 98.0748 8.43354C99.3664 8.43354 100.179 7.54874 100.141 6.44161C100.141 5.29667 99.3664 4.41188 98.1489 4.41188Z" fill="white"/>
<path d="M112.333 20.8509L117.816 11.0063H114.311L111.802 15.2608C111.211 16.2197 110.621 17.1424 110.031 18.2117H109.919C109.329 17.2165 108.776 16.2939 108.112 15.2971L105.565 11.0063H101.95L107.396 20.9613L101.653 29.6218H105.233L107.817 25.2976C108.481 24.2268 109.108 23.2679 109.698 22.197H109.772C110.4 23.2679 110.99 24.2646 111.69 25.2976L114.311 29.6218H118L112.333 20.8509Z" fill="white"/>
</g>
<defs>
<clipPath id="clip0_88_44">
<rect width="118" height="34.0185" fill="white"/>
</clipPath>
</defs>
</svg>
