<svg width="16" height="20" viewBox="0 0 16 20" fill="none" xmlns="http://www.w3.org/2000/svg">
<path fill-rule="evenodd" clip-rule="evenodd" d="M10.2564 0.256349C10.2564 0.188345 10.2294 0.123126 10.1813 0.0750398C10.1332 0.0269536 10.068 -6.10352e-05 10 -6.10352e-05H2.82051C2.07247 -6.10352e-05 1.35506 0.297099 0.826109 0.826048C0.29716 1.355 0 2.07241 0 2.82045V17.1794C0 17.9275 0.29716 18.6449 0.826109 19.1738C1.35506 19.7028 2.07247 19.9999 2.82051 19.9999H13.0769C13.825 19.9999 14.5424 19.7028 15.0713 19.1738C15.6003 18.6449 15.8974 17.9275 15.8974 17.1794V7.07379C15.8974 7.00578 15.8704 6.94056 15.8223 6.89248C15.7743 6.84439 15.709 6.81738 15.641 6.81738H11.0256C10.8216 6.81738 10.626 6.73633 10.4817 6.59207C10.3375 6.44781 10.2564 6.25216 10.2564 6.04814V0.256349ZM11.0256 10.2563C11.2297 10.2563 11.4253 10.3374 11.5696 10.4817C11.7138 10.6259 11.7949 10.8216 11.7949 11.0256C11.7949 11.2296 11.7138 11.4253 11.5696 11.5695C11.4253 11.7138 11.2297 11.7948 11.0256 11.7948H4.8718C4.66778 11.7948 4.47213 11.7138 4.32787 11.5695C4.18361 11.4253 4.10256 11.2296 4.10256 11.0256C4.10256 10.8216 4.18361 10.6259 4.32787 10.4817C4.47213 10.3374 4.66778 10.2563 4.8718 10.2563H11.0256ZM11.0256 14.3589C11.2297 14.3589 11.4253 14.44 11.5696 14.5842C11.7138 14.7285 11.7949 14.9241 11.7949 15.1281C11.7949 15.3322 11.7138 15.5278 11.5696 15.6721C11.4253 15.8163 11.2297 15.8974 11.0256 15.8974H4.8718C4.66778 15.8974 4.47213 15.8163 4.32787 15.6721C4.18361 15.5278 4.10256 15.3322 4.10256 15.1281C4.10256 14.9241 4.18361 14.7285 4.32787 14.5842C4.47213 14.44 4.66778 14.3589 4.8718 14.3589H11.0256Z" fill="#493D9E"/>
<path d="M11.5 0.573926C11.5 0.389926 11.693 0.272926 11.836 0.387926C11.9573 0.485926 12.065 0.599926 12.159 0.729926L15.172 4.92693C15.24 5.02293 15.166 5.14693 15.048 5.14693H11.75C11.6837 5.14693 11.6201 5.12059 11.5732 5.0737C11.5263 5.02682 11.5 4.96323 11.5 4.89693V0.573926Z" fill="#493D9E"/>
</svg>
