<svg width="25" height="20" viewBox="0 0 25 20" fill="none" xmlns="http://www.w3.org/2000/svg">
<path d="M16.2047 -6.10352e-05L11.0919 3.28169L11.6102 3.56547L16.1589 0.645679L23.8743 5.01595L19.4489 7.8565L19.6644 7.97449V8.33456L23.1307 6.10957L23.8582 6.52169L19.6644 9.21355V9.82995L23.0628 7.64854L23.8582 8.09916L19.6644 10.791V11.4074L23.0628 9.22601L23.8582 9.67662L19.6644 12.3685V12.9849L24.9242 9.60869L23.6187 8.8693L24.9241 8.03133L23.6186 7.29184L24.924 6.45387L23.6865 5.75281L24.9401 4.94807L16.2047 -6.10352e-05ZM17.8382 2.35239C16.732 2.90742 15.2586 3.00133 14.2212 2.58285L12.1932 3.88458L18.8658 7.53734L20.7893 6.30275C20.0316 5.7046 20.0947 4.8121 20.944 4.11173L17.8382 2.35239ZM10.9717 4.29491L7.25494 6.71855L14.3854 10.8233L14.4553 10.7786C14.5867 10.6939 14.7724 10.5741 14.9938 10.4309C15.4365 10.1447 16.0225 9.76522 16.6067 9.38664C17.4481 8.84138 17.8816 8.56008 18.2848 8.29854L10.9717 4.29491ZM17.043 4.35643H17.0432C17.2113 4.35746 17.3655 4.3935 17.4807 4.4587C17.5477 4.49665 17.5996 4.54345 17.6336 4.59644C17.6676 4.64943 17.6829 4.70757 17.6786 4.76754C17.6744 4.82751 17.6507 4.88814 17.6089 4.94595C17.567 5.00377 17.5079 5.05764 17.4349 5.1045C17.3619 5.15135 17.2764 5.19027 17.1834 5.21904C17.0903 5.2478 16.9914 5.26585 16.8925 5.27215C16.7935 5.27845 16.6963 5.27287 16.6065 5.25575C16.5166 5.23862 16.4359 5.21027 16.369 5.17232C16.2337 5.09569 16.1625 4.98462 16.1711 4.86353C16.1797 4.74244 16.2673 4.62126 16.4147 4.52664C16.4984 4.47289 16.5984 4.42967 16.7072 4.4002C16.816 4.37072 16.9308 4.35576 17.043 4.35643ZM5.55827 6.83376L0.016037 10.3911L1.25362 11.0921L0 11.8969L1.30547 12.6363L0 13.4743L1.30547 14.2138L0 15.0518L8.73544 19.9999L14.0095 16.6145V15.9983L8.78124 19.3541L1.06591 14.9838L1.81544 14.5027L8.73544 18.4224L14.0095 15.0371V14.4208L8.78124 17.7767L1.06591 13.4064L1.81544 12.9253L8.73544 16.845L14.0095 13.4597V12.8434L8.78124 16.1993L1.06591 11.829L1.76365 11.381L8.75158 15.3393L14.0095 11.9642V11.6987L13.7213 11.5329L8.79717 14.6935L1.08205 10.3232L6.06457 7.12505L5.55822 6.8336L5.55827 6.83376ZM6.63407 7.45316L4.167 9.03661C4.92468 9.63466 4.86158 10.5272 4.0123 11.2276L7.11812 12.987C8.22426 12.4319 9.69756 12.338 10.735 12.7565L13.1518 11.2051L6.63396 7.4531L6.63407 7.45316ZM18.7179 9.14572C18.295 9.42003 17.922 9.66216 17.1214 10.1809C16.5837 10.5295 16.0458 10.8778 15.5077 11.2259C15.286 11.3691 15.1 11.4893 14.9673 11.5746C14.9626 11.5777 14.9606 11.5788 14.956 11.5818V16.0997L18.718 13.5712L18.7179 9.14572ZM8.1498 10.0648C8.31798 10.0659 8.47216 10.102 8.58727 10.1672C8.72255 10.2438 8.79373 10.3549 8.78515 10.476C8.77657 10.5971 8.68894 10.7183 8.54153 10.8129C8.39412 10.9075 8.19902 10.9678 7.99915 10.9805C7.79928 10.9932 7.611 10.9573 7.47572 10.8807C7.34044 10.8041 7.26926 10.693 7.27784 10.5719C7.28642 10.4508 7.37406 10.3296 7.52147 10.235C7.60518 10.1813 7.70517 10.1381 7.81398 10.1086C7.92278 10.0791 8.03758 10.0642 8.1498 10.0649V10.0648Z" fill="#493D9E"/>
</svg>
