<svg width="20" height="20" viewBox="0 0 20 20" fill="none" xmlns="http://www.w3.org/2000/svg">
<path fill-rule="evenodd" clip-rule="evenodd" d="M8.39039 0.00020266H11.576C12.056 -0.00693999 12.526 0.150198 12.9045 0.445904C13.286 0.745896 13.5502 1.16731 13.6474 1.64158L13.9259 2.97726C14.0469 3.04202 14.1659 3.10869 14.2831 3.17726L15.633 2.73441C15.9108 2.64478 16.204 2.61361 16.4944 2.64287C16.7847 2.67212 17.0659 2.76117 17.3201 2.90441C17.6344 3.08154 17.8987 3.33582 18.083 3.64724L19.6901 6.2986C19.9499 6.70943 20.0523 7.20036 19.9785 7.68082C19.9048 8.16127 19.6597 8.59884 19.2887 8.91281H19.2858L18.2258 9.81707V10.1856L19.2729 11.1185C19.6369 11.4273 19.8793 11.8553 19.957 12.3263C20.0347 12.7972 19.9426 13.2804 19.6972 13.6898L18.1401 16.3469V16.3497C17.9548 16.6598 17.6922 16.9164 17.3779 17.0944C17.0636 17.2725 16.7085 17.3659 16.3473 17.3654C16.1239 17.3666 15.9017 17.3329 15.6888 17.2654L15.6816 17.2626L14.3431 16.8212C14.224 16.8916 14.1031 16.9588 13.9802 17.0226L13.7031 18.3568C13.6053 18.8313 13.342 19.2556 12.9603 19.5539C12.5807 19.8509 12.1107 20.0082 11.6289 19.9996H8.41753C7.93672 20.0076 7.46775 19.8502 7.089 19.5539C6.70755 19.256 6.4443 18.8322 6.34616 18.3583L6.0676 17.0211C5.94698 16.9573 5.8279 16.8907 5.71046 16.8212L4.3605 17.264C4.08279 17.3536 3.78952 17.3848 3.49917 17.3555C3.20881 17.3263 2.92766 17.2372 2.67341 17.094C2.3587 16.9184 2.09564 16.6632 1.91057 16.354L0.302046 13.697C0.0526331 13.2944 -0.0469895 12.8169 0.0206727 12.3482C0.0883349 11.8796 0.318956 11.4497 0.672035 11.1342L1.73915 9.7885L0.720605 8.88138C0.356208 8.5722 0.113607 8.14354 0.0361468 7.67197C-0.0413135 7.20041 0.0514132 6.71666 0.29776 6.30717L0.300617 6.30431L1.91057 3.64724C2.09318 3.34009 2.35213 3.0854 2.66227 2.90793C2.97242 2.73046 3.3232 2.63623 3.68052 2.63441C3.89575 2.62299 4.10813 2.64346 4.31765 2.69584L4.34907 2.70441L5.68475 3.1744C5.80189 3.10583 5.92093 3.04012 6.04188 2.97726L6.31902 1.64301C6.41684 1.16852 6.68012 0.744229 7.06185 0.445904C7.43899 0.150198 7.9104 -0.00693999 8.39039 0.00020266ZM10.0003 7.14286C9.2426 7.14286 8.5159 7.44387 7.98009 7.97967C7.44429 8.51547 7.14328 9.24218 7.14328 9.99992C7.14328 10.7577 7.44429 11.4844 7.98009 12.0202C8.5159 12.556 9.2426 12.857 10.0003 12.857C10.7581 12.857 11.4848 12.556 12.0206 12.0202C12.5564 11.4844 12.8574 10.7577 12.8574 9.99992C12.8574 9.24218 12.5564 8.51547 12.0206 7.97967C11.4848 7.44387 10.7581 7.14286 10.0003 7.14286ZM5.71475 9.99992C5.71475 8.86331 6.16627 7.77325 6.96997 6.96955C7.77368 6.16584 8.86373 5.71433 10.0003 5.71433C11.137 5.71433 12.227 6.16584 13.0307 6.96955C13.8344 7.77325 14.2859 8.86331 14.2859 9.99992C14.2859 11.1365 13.8344 12.2266 13.0307 13.0303C12.227 13.834 11.137 14.2855 10.0003 14.2855C8.86373 14.2855 7.77368 13.834 6.96997 13.0303C6.16627 12.2266 5.71475 11.1365 5.71475 9.99992Z" fill="#493D9E"/>
</svg>
