<svg width="20" height="20" viewBox="0 0 20 20" fill="none" xmlns="http://www.w3.org/2000/svg">
<path fill-rule="evenodd" clip-rule="evenodd" d="M0.69759 -6.10352e-05C0.512578 -6.10352e-05 0.335143 0.0734349 0.204319 0.204258C0.0734959 0.335082 0 0.512516 0 0.697529C0 0.882541 0.0734959 1.05998 0.204319 1.1908C0.335143 1.32162 0.512578 1.39512 0.69759 1.39512H2.55783V8.60355C2.55783 11.4534 2.55783 12.8784 3.49167 13.7639C4.42551 14.6493 5.92858 14.6493 8.93566 14.6493H9.3012V17.9392L7.82696 18.6758C7.74427 18.7163 7.67041 18.7727 7.60965 18.8419C7.54888 18.9111 7.5024 18.9916 7.4729 19.0788C7.44339 19.166 7.43144 19.2582 7.43774 19.35C7.44403 19.4419 7.46844 19.5316 7.50957 19.6139C7.55069 19.6963 7.60771 19.7697 7.67734 19.83C7.74698 19.8902 7.82784 19.936 7.91528 19.9649C8.00271 19.9937 8.09499 20.0049 8.18679 19.9979C8.27859 19.9909 8.36809 19.9658 8.45014 19.924L9.99879 19.1502L11.5474 19.924C11.6295 19.9658 11.719 19.9909 11.8108 19.9979C11.9026 20.0049 11.9949 19.9937 12.0823 19.9649C12.1697 19.936 12.2506 19.8902 12.3202 19.83C12.3899 19.7697 12.4469 19.6963 12.488 19.6139C12.5291 19.5316 12.5535 19.4419 12.5598 19.35C12.5661 19.2582 12.5542 19.166 12.5247 19.0788C12.4952 18.9916 12.4487 18.9111 12.3879 18.8419C12.3272 18.7727 12.2533 18.7163 12.1706 18.6758L10.6964 17.9382V14.6493H11.0619C14.0681 14.6493 15.5721 14.6493 16.5059 13.7639C17.4397 12.8784 17.4397 11.4534 17.4397 8.60355V1.39512H19.3C19.485 1.39512 19.6624 1.32162 19.7933 1.1908C19.9241 1.05998 19.9976 0.882541 19.9976 0.697529C19.9976 0.512516 19.9241 0.335082 19.7933 0.204258C19.6624 0.0734349 19.485 -6.10352e-05 19.3 -6.10352e-05H0.69759ZM13.2821 6.25034C13.4127 6.38114 13.4861 6.55845 13.4861 6.74331C13.4861 6.92817 13.4127 7.10547 13.2821 7.23627L12.0571 8.46217C11.9251 8.59964 11.7847 8.72886 11.6367 8.8491C11.4365 9.01245 11.1873 9.10383 10.9289 9.1086C10.6706 9.10383 10.4213 9.01245 10.2211 8.8491C10.0732 8.72886 9.93275 8.59964 9.80067 8.46217L9.2333 7.8948L9.06867 7.73017L8.90404 7.89294L7.70139 9.09651C7.63753 9.16505 7.56051 9.22002 7.47494 9.25815C7.38937 9.29628 7.297 9.31678 7.20333 9.31843C7.10967 9.32008 7.01663 9.30285 6.92977 9.26777C6.8429 9.23268 6.764 9.18046 6.69776 9.11422C6.63152 9.04798 6.57929 8.96907 6.54421 8.88221C6.50912 8.79535 6.49189 8.70231 6.49355 8.60864C6.4952 8.51498 6.5157 8.4226 6.55383 8.33703C6.59196 8.25146 6.64693 8.17445 6.71547 8.11058L7.94043 6.88469C8.0753 6.74982 8.22133 6.60379 8.36085 6.49776C8.56106 6.33441 8.81032 6.24302 9.06867 6.23825C9.37933 6.23825 9.61279 6.37312 9.77649 6.49776C9.91601 6.60379 10.062 6.74982 10.1969 6.88469L10.7643 7.45206L10.9289 7.61576L11.0935 7.45299L12.2962 6.25034C12.427 6.11971 12.6043 6.04633 12.7891 6.04633C12.974 6.04633 13.1513 6.11971 13.2821 6.25034Z" fill="#493D9E"/>
</svg>
